# xmcd
#
# Track frame offsets:
#	150
#	21907
#	44265
#	63227
#	84062
#	102264
#	116364
#	131964
#	145382
#	161784
#	176097
#	196549
#	214541
#	232346
#	245913
#	263208
#
# Disc length: 3743 seconds
#
# Revision: 3
# Processed by: cddbd v1.5.2PL0 Copyright (c) Steve Scherf et al.
# Submitted via: audiograbber 1.83.01
#
DISCID=e50e9d10
DTITLE=Various Artist - MM6407
DYEAR=1900
DGENRE=Karaoke
TTITLE0=Urban, Keith - You'll Think Of Me
TTITLE1=Chesney, Kenny And Uncle Cracker - When The Sun Goes Down
TTITLE2=Strait, George - Desperately
TTITLE3=Montgomery, John Michael - Letters From Home
TTITLE4=Big And Rich - Wild West Show
TTITLE5=Montgomery Gentry - If You Ever Stop Loving Me
TTITLE6=SHeDAISY - Passenger Seat
TTITLE7=Brooks And Dunn - That's What She Gets For Loving Me
TTITLE8=Twain, Shania - It Only Hurts When I'm Breathing
TTITLE9=Dalley, Amy - Men Don't Change
TTITLE10=Cagle, Chris - I'd Be Lying
TTITLE11=Diamond Rio - We All Fall Down
TTITLE12=Prather, Colt - I Won't Go On And On
TTITLE13=Womack, Lee Ann - The Wrong Girl
TTITLE14=Lawrence, Tracy - Paint Me A Birmingham
TTITLE15=Crow, Sheryl - The First Cut Is The Deepest
EXTD=
EXTT0=
EXTT1=
EXTT2=
EXTT3=
EXTT4=
EXTT5=
EXTT6=
EXTT7=
EXTT8=
EXTT9=
EXTT10=
EXTT11=
EXTT12=
EXTT13=
EXTT14=
EXTT15=
PLAYORDER=
